<?xml version="1.0" encoding="utf-8"?>
<!-- Generator: Adobe Illustrator 16.0.0, SVG Export Plug-In . SVG Version: 6.00 Build 0)  -->
<!DOCTYPE svg PUBLIC "-//W3C//DTD SVG 1.1//EN" "http://www.w3.org/Graphics/SVG/1.1/DTD/svg11.dtd">
<svg version="1.1" id="Layer_1" xmlns="http://www.w3.org/2000/svg" xmlns:xlink="http://www.w3.org/1999/xlink" x="0px" y="0px"
	 width="751px" height="1335px" viewBox="0 0 751 1335" enable-background="new 0 0 751 1335" xml:space="preserve">
<radialGradient id="SVGID_1_" cx="365.8477" cy="392.1787" r="866.3364" gradientTransform="matrix(0.6574 0 0 1.1749 263.5762 0.67)" gradientUnits="userSpaceOnUse">
	<stop  offset="0" style="stop-color:#843566"/>
	<stop  offset="1" style="stop-color:#1A011E"/>
</radialGradient>
<rect x="-51.383" y="-3.831" fill="url(#SVGID_1_)" width="1123.598" height="1338.831"/>
<g opacity="0.4">
	<linearGradient id="SVGID_2_" gradientUnits="userSpaceOnUse" x1="6.6484" y1="308.5259" x2="79.9322" y2="1585.744">
		<stop  offset="0" style="stop-color:#843566"/>
		<stop  offset="1" style="stop-color:#2A0333"/>
	</linearGradient>
	<path fill="url(#SVGID_2_)" d="M346.575,1045.676c0,0-37.793,8.069-39.654,8.146c-1.862,0.077-19.701,0.247-19.701,0.247
		s-23.439-14.6-27.459-15.283c-4.02-0.683-23.865-4.393-23.865-4.393s-3.586-3.085-8.055-6.938l33.108-7.227l0.154-4.523
		l-40.558,5.457c-5.107-4.412-9.607-8.309-9.955-8.651c-0.829-0.815-10.256-18.257-10.256-18.257s-17.745,2.713-18.809,2.758
		c-1.064,0.044-23.017-3.013-23.017-3.013l9.345-12.556c0,0,23.003-6.044,23.801-6.077c0.797-0.033,44.24,0.722,44.24,0.722
		l15.188-7.137l30.111-6.903l25.197,11.697l0.314-5.957L275.8,952.93l-26.695,5.63l-13.54,8.483c0,0-31.046-4.096-32.11-4.053
		c-1.063,0.044-25.161,3.869-25.161,3.869s-30.521,2.958-31.554,3.85c-1.033,0.892-9.776,9.461-9.776,9.461l-25.628-16.208
		l-1.339-22.021l-10.452-20.215c20.556-5.866,45.551-13.132,45.551-13.132l69.751-14.856l83.757,11.72l28.764-0.022l33.328-8.904
		l24.65-19.992l-3.627-2.97l-25.154,19.124l-30.75,3.625l-13.719-0.062l17.742-21.575l8.035-6.577l30.743-5.984
		c0,0,1.863-2.57,0.091-2.638c-1.773-0.068-33.922,5.484-33.922,5.484l-18.336,17.028l-12.864,14.224l-27.565-0.123l-61.329-13.403
		l-43.111,6.828l-44.744,7.897l-50.152,10.235l-31.878-2.361l-7.498-4.945l17.238-29.308l28.599-16.525l14.121,4.123l14.919,7.65
		l37.594-9.021l23.313-19.761l28.592-18.425l19.461,7.26l23.434,0.054l20.411-12.797l14.115-15.588l13.274-6.563l12.272-0.658
		l-1.224-3.16l-5.585-0.216l-18.841,5.783l-11.054,11.743l-17.437,11.498l-16.49-0.636c0,0-28.049-5.327-32.285-6.056
		s-27.756,17.325-29.134,18.687c-1.378,1.362-22.341,14.705-22.341,14.705l-44.455-1.715l16.463-9.512l12.285-28.237l22.201,2.505
		l47.869-38.219l0.096-3.065l-50.196,30.467l-16.91,1.282l13.155-30.224l55.582-23.12l0.125-4.088l-62.217,19.819l-32.279,63.104
		l-46.015,22.898l-1.637-43.451l19.147-32.917l0.283-6.476l19.744-0.382l26.314-21.909l26.049-21.919l55.68-8.324l27.172-8.001
		l0.105-3.116l-31.192,7.288c0,0-55.846,6.903-56.644,6.872c-0.799-0.03-29.487,21.221-30.609,22.876
		c-1.122,1.654-23.158,15.239-24.953,13.188c-0.604-0.69-5.235-0.267-11.107,0.596l1.371-31.415l13.893-13.495l-1.414-0.904
		l-15.199,14.132l-4.933,32.684c-10.438,1.771-21.688,4.111-21.688,4.111l-24.184,6.284L1.301,748.556l27.901-35.493l2.639-11.464
		l21.361-12.545l12.689,4.229c0,0,26.244,3.559,29.741,2.562c3.496-0.998,23.438-7.87,23.438-7.87l16.752-10.958l7.564-22.632
		c0,0,37.758-13.826,39.354-13.765c1.595,0.062,28.927-4.828,28.927-4.828l-1.541-3.173c0,0-30.443,3.92-31.517,4.162
		c-1.074,0.242-37.374,10.445-39.532,11.211c-2.157,0.766-10.793,19.678-11.629,20.778c-0.836,1.099-27.79,10.531-27.79,10.531
		s-16.666-0.643-28.019-1.08l9.021-5.299l5.295-20.782l3.275-17.617l28.317-33.791l23.436-0.372l0.866-2.018l-24.716,0.162
		l-29.966,31.815L85.3,616.303l6.515-27.019l-1.885-26.676l11.182-19.379l-3.458-0.134c0,0-10.392,15.731-10.43,16.862
		c-0.039,1.13-0.641,26.578-0.946,27.698c-0.304,1.121-8.891,34.185-8.891,34.185l6.185,15.49l-6.946,23.347l-40.323,21.511
		l7.366-32.041l4.784-45.86l-1.422-31.763l-3.846-0.133l-1.045,33.719l-3.559,32.47l-9.002-15.347l1.676-54.159l-3.365-0.118
		l-4.72,54.051l12.213,28.552l-13.831,44.358l-39.614,46.586l-0.646-73.741L0.19,617.403l19.15-37.871l8.918-20.911l12.951-0.438
		l14.836-13.296l26.533-20.485l0.248-2.254l19.511,0.752l11.401-6.353l6.078-21.982l20.232-7.568l21.225-5.408l-1.215-3.443
		l-20.672,4.863l-23.144,7.032l-7.278,18.115c0,0-14.604,1.199-24.81,1.979l2.661-24.058l22.822-28.836l42.955-17.871l10.57-13.176
		l-2.926-0.113l-10.979,9.54l-49.593,17.275c0,0-23.936,30.208-25.351,32.7c-1.418,2.493-4.333,17.663-4.922,19.338
		c-0.59,1.675-12.132,19.909-12.132,19.909s-10.521,5.176-20.605,10.085l7.971-35.941l12.803-49.323l12.234-18.487l1.696-2.882
		c4.893-1.801,10.369-3.816,10.926-4.021c1.022-0.379,12.621-11.946,12.621-11.946l11.258-5.438l0.681-6.352l4.776-17.936
		l8.187-3.625l-2.046-2.175l-9.552,3.987l-5.8,19.212l-29.8,19.817l1.56-10.642l-4.507-37.45l15.692-17.762l12.28-15.95
		l-4.093-3.262l-11.258,15.587l-17.738,20.3l3.07,36.975l-16.912,43.623l-14.771,39.972l1.776-59.891l2.208-15.004l-6.072-31.899
		l-5.919-17.247l6.942-20.815l5.049-17.038l-5.049-21.024l-1.364-10.513l-2.729,11.962l4.094,18.488l-10.635,28.182l-0.963-2.808
		L6.899,312.639l12.281-26.1l-4.775,1.813l-11.94,23.2l13.305,47.487l13.717,41.688v2.1l-15.765-11.888L2.465,368.101
		l-22.854-15.949l-9.209-18.85l-3.412,1.45l9.892,21.388l21.832,17.399l12.962,31.9l17.812,8.628v29.46l-4.091,37.545L2.465,454.738
		l2.388-26.825l-15.35-21.75l-22.514-15.225l2.729-21.387l-2.729,1.813l-5.118,21.63l20.81,16.183l11.006,15.314l-29.427,1.61
		l-22.515-22.112l-18.079-14.862l-4.72-23.2h-1.762l1.762,27.067l24.505,23.682l18.42,17.763l34.108,1.035l-2.041,20.352
		c0,0,21,31.383,29.364,44.442l-2.724,24.997l-4.039,6.851l-27.058,45.901l-5.472-10.438l2.344-49.862l-14.965-47.143l-1.859,4.238
		l12.258,45.655l-7.855,46.142c0,0,3.789,13.21,7.258,25.476l-11.904,20.193l-16.144-17.585l-2.536-34.908l-11.002-13.16
		l-9.164-4.599l-8.574-6.273c0,0-3.669-6.45-6.664-11.833l7.657-17.279l0.551-16.11l-10.375-23.749l-2.7-22.32l-10.747-28.432
		l-2.273,4.158l9.21,26.675l1.956,20.735l7.786,21.526l-7.057,20.615c-1.206-4.167-2.41-8.528-2.41-8.528l-12.464-17.178
		l-7.241-29.712l-11.646-17.713l-13.352-6.741l-3.826-20.524l-4.257-0.165c0,0,4.263,23.372,4.499,24.229
		c0.238,0.858,9.098,6.577,9.098,6.577s7.95,13.629,11.059,19.582l-28.685-5.189l-12.963-16.675l-16.032-2.175l-8.527,5.438v3.625
		l9.209-4.351h8.869l6.822,5.438l9.893,17.763l24.22,5.075l11.321,1.718c5.979,15.67,19.13,48.902,19.13,48.902l11.284,20.529
		l25.501,25.322c0,0,0.063,0.942,0.171,2.539l-57.123-11.527l-9.37-29.794l-24.015-6.445l-15.752-22.258l-2.728,1.876l16.657,26.962
		l18.71,5.816l11.266,36.66l28.691,9.879l22.273,2.84l12.276-0.676c0.731,11.139,1.566,24.265,1.521,25.547
		c-0.053,1.592,12.709,14.482,20.808,22.484l-10.818,80.783l-18.531-16.081l2.817-5.335l9.778-21.132l-9.723-27.261l-4.862-21.414
		l4.869-10l-2.887-1.244l-5.449,11.393l3.189,23.613l5.64,22.009l-10.342,14.521l-7.188-25.389l-34.271-35.39l-0.296-20.001
		l-1.574,0.525l-0.118,21.462l23.417,30.337l-13.018-4.569l-17.439-18.537l-20.548-5.375l-11.412,2.828l-0.154,1.354l10.86-2.214
		l17.388,6.175c0,0,16.752,20.358,16.871,20.705c0.091,0.264,15.304,4.582,22.938,6.739l0.209,0.271l7.007,31.368l-12.542,17.609
		l-8.959,20.597l9.214,34.316c0,0,2.585,33.495,1.179,35.705c-0.709,1.114-3.516,12.142-6.127,22.807
		c-12.494-27.347-29.228-63.305-29.228-63.305l-8.286-4.77l-8.729-38.877l-19.07-16.353l-6.625-24.271l-1.197,2.407l4.707,24.139
		l16.378,15.063c0,0,4.088,19.681,6.894,33.492l-32.625-18.766l-15.251-20.011l-27.107-17.271c0,0-33.38-10.343-35.453-12.027
		s-23.274-15.143-23.274-15.143l-8.654-16.933l-3.979,2.107l8.667,16.56l24.522,20.19l30.201,9.844l16.359,9.687l19.898,18.82
		l-35.926,6.091l-41.484-11.533l0.407,3.383l36.016,19.832l42.788-4.454l9.843,7.073l-15.36,12.07l-28.541,9.088l-19.594,12.263
		l-11.266,33.527l4.368,4.696l8.402-27.694l20.981-13.907l25.306-0.157l29.344-20.086l23.955,17.212l32.337,96.607l2.391,50.422
		l-56.048-38.831l-12.811-68.175l-10.604-14.987l-3.043-0.107l9.751,16.535l4.768,53.362l12.329,31.967l18.219,12.571
		c0,0,24.494,17.225,25.134,17.245c0.35,0.016,7.091,4.627,13.18,8.841l2.175,45.944l1.016,2.566
		c-16.08-4.03-37.988-9.478-37.988-9.478l-41.042-22.526L-219.644,905l-26.708-5.59l-29.775-9.324l-29.213,5.383l-0.164,4.805
		l27.322-4.607l26.221,12.048l25.378,5.507l33.333,53.359l8.931,5.924c-7.909,5.172-25.527,16.618-27.749,17.406
		c-2.875,1.021-19.975,2.626-21.052,2.962c-1.076,0.336-26.62-5.555-26.62-5.555l-17.554,2.72l-18.577,20.698l2.68,4.726
		l19.07-17.754l19.821,1.896c0,0,28.216,5.616,31.039,6.103c2.825,0.486,35.823-9.184,35.823-9.184l20.873-12.237l14.981,9.94
		l59.945,19.517l24.298,61.427l-16.679,101.688l-32.953-26.151l-3.014-9.914l10.284-31.429l-8.885-23.949l3.862-21.005l-1.284-0.047
		l-5.156,21.415l6.116,23.628c0,0-5.074,11.674-8.492,19.709l-12.846-42.229l-21.518-18.144l-30.107,2.23l-0.129,4.113l27.541,0.967
		l17.721,15.841l15.598,72.849l43.449,38.511l2.499,66.912l21.03,115.467l67.28-9.162l-27.138-130.56l27.35-36.909
		c16.082,3.974,52.241,12.884,53.345,12.926c1.417,0.055,74.876-19.376,74.876-19.376l47.776-26.458l83.329-6.975l11.284,2.321
		l0.155-4.521l-18.021-2.582l-88.231,4.899l-41.258,22.747l-44.734,10.162c0,0,5.583-17.898,6.673-18.61
		c1.09-0.713,26.26-30.685,26.26-30.685l28.71-19.269l-3.771-3.919l-26.416,14.453L96.321,1161.8l-14.642,23.208l-11.571,16.534
		l-35.174,0.53l-19.337-4.416l6.651-8.977l0.338-52.837l34.438-35.805l0.635-20.738c13.703-1.964,30.331-7.253,33.557-7.128
		c3.547,0.137,36.906,0.668,37.971,0.709c1.063,0.042,26.718-12.931,26.718-12.931l35.997-24.649l16.334-3.566l81.874,35.8
		l46.444-11.823l38.752-18.299l-1.823-6.151L346.575,1045.676z M-81.036,956.235c-4.158-7.677-4.039-103.209-4.367-105.915
		c-0.046-0.377-0.91-2.475-2.361-5.799l12.201-40.943l1.44-18.765l-9.766-25.989l-3.386-25.602l7.75-16.398l6.839-12.946
		c5.895,5.127,14.604,12.705,22.159,19.299l-2.265,16.882l-1.784,151.415l9.186,116.026
		C-45.39,1007.5-76.878,963.917-81.036,956.235z M-15.214,769.564l14.899,6.351l17.173,4.059l31.166-0.213l26.162-17.387l2.04-0.039
		l-0.528,3.503l-22.384,33.826c0,0,1.238,33.29,1.821,50.754l-10.777,5.366c0,0-30.248,38.873-51.429,66.854l-10.371-109.29
		l-0.354-40.501L-15.214,769.564z M48.354,1096.433l-33.1,34.002l-5.468,52.349c0,0-19.515,23.142-34.532,41.082l-6.384-30.716
		l16.985-82.919c5.303-0.58,9.799-1.29,10.74-2.086c2.561-2.165,19.349-15.479,20.818-16.933c1.347-1.33,18.683-8.687,32.536-10.943
		L48.354,1096.433z M182.622,1026.264c0,0-44.27,27.727-46.436,28.775c-2.064,1-45.772,2.451-49.824,2.583l6.011-19.366
		l27.094-3.106l32.999-9.67l0.128-3.769c0,0-30.665,3.723-31.777,5.095c-1.111,1.372-35.014,6.292-35.014,6.292l-13.257,25.33
		c-4.384,0.258-9.378,0.55-14.275,0.834l0.765-24.985l9.026-22.844l-1.904-1.6l-11.674,24.556l-2.492,25.236
		c-9.207,0.53-16.788,0.954-17.194,0.938c-0.558-0.021-21.312,5.402-40.931,10.566l8.99-43.891l-5.582-58.838l26.675-45.344
		c14.545,1.801,38.188,4.721,46.28,5.663c12.477,18.419,38.281,56.513,38.709,57.138c0.517,0.759,72.157,33.716,83.766,39.053
		L182.622,1026.264z"/>
	<linearGradient id="SVGID_3_" gradientUnits="userSpaceOnUse" x1="1121.124" y1="244.5796" x2="1194.4076" y2="1521.7931">
		<stop  offset="0" style="stop-color:#843566"/>
		<stop  offset="1" style="stop-color:#2A0333"/>
	</linearGradient>
	<path fill="url(#SVGID_3_)" d="M1436.847,1127.212c0,0-33.66,7.188-35.319,7.255c-1.657,0.068-17.544,0.22-17.544,0.22
		s-20.876-13.003-24.457-13.612c-3.58-0.608-21.255-3.912-21.255-3.912s-3.192-2.748-7.173-6.179l29.486-6.437l0.137-4.027
		l-36.12,4.859c-4.55-3.93-8.557-7.401-8.866-7.705c-0.738-0.726-9.135-16.26-9.135-16.26s-15.805,2.417-16.752,2.456
		c-0.947,0.04-20.499-2.684-20.499-2.684l8.323-11.182c0,0,20.486-5.383,21.197-5.413s39.401,0.643,39.401,0.643l13.526-6.356
		l26.816-6.148l22.443,10.418l0.281-5.306l-27.527-13.232l-23.775,5.015l-12.059,7.556c0,0-27.65-3.648-28.6-3.609
		c-0.946,0.04-22.408,3.446-22.408,3.446s-27.183,2.634-28.104,3.428c-0.918,0.795-8.707,8.427-8.707,8.427l-22.825-14.435
		l-1.19-19.613l-9.311-18.004c18.308-5.224,40.568-11.696,40.568-11.696l62.122-13.231l74.596,10.438l25.618-0.02l29.683-7.93
		l21.955-17.806l-3.229-2.645l-22.404,17.032l-27.387,3.229l-12.219-0.055l15.802-19.216l7.157-5.857l27.38-5.33
		c0,0,1.661-2.288,0.081-2.349c-1.579-0.061-30.211,4.884-30.211,4.884l-16.33,15.166l-11.458,12.668l-24.552-0.11l-54.619-11.937
		l-38.396,6.081l-39.852,7.033l-44.667,9.115l-28.391-2.103l-6.678-4.404l15.354-26.102l25.471-14.718l12.574,3.672l13.289,6.814
		l33.48-8.035l20.762-17.6l25.467-16.409l17.332,6.465l20.871,0.048l18.179-11.397l12.57-13.882l11.822-5.846l10.931-0.586
		l-1.09-2.815l-4.975-0.191l-16.779,5.15l-9.845,10.459l-15.53,10.239l-14.688-0.566c0,0-24.979-4.745-28.752-5.394
		s-24.721,15.43-25.949,16.644c-1.227,1.212-19.896,13.096-19.896,13.096l-39.592-1.527l14.661-8.472l10.942-25.148l19.771,2.231
		l42.634-34.039l0.086-2.731l-44.706,27.135l-15.061,1.142l11.717-26.917l49.502-20.591l0.111-3.641l-55.412,17.651l-28.747,56.202
		l-40.983,20.394l-1.457-38.699l17.053-29.315l0.252-5.768l17.585-0.341l23.437-19.513l23.199-19.522l49.59-7.414l24.199-7.126
		l0.096-2.776l-27.782,6.491c0,0-49.737,6.147-50.448,6.121c-0.711-0.027-26.262,18.899-27.261,20.373
		c-0.999,1.474-20.624,13.572-22.224,11.746c-0.537-0.614-4.662-0.237-9.892,0.531l1.22-27.979l12.373-12.019l-1.259-0.805
		l-13.538,12.587l-4.393,29.109c-9.295,1.577-19.315,3.662-19.315,3.662l-21.538,5.597l-27.485-10.863l24.85-31.611l2.351-10.21
		l19.023-11.174l11.303,3.767c0,0,23.374,3.169,26.487,2.282c3.114-0.888,20.876-7.009,20.876-7.009l14.92-9.759l6.736-20.157
		c0,0,33.629-12.314,35.05-12.26c1.421,0.055,25.763-4.3,25.763-4.3l-1.373-2.825c0,0-27.111,3.491-28.068,3.707
		c-0.956,0.216-33.287,9.303-35.208,9.985c-1.921,0.682-9.612,17.525-10.357,18.504s-24.751,9.38-24.751,9.38
		s-14.844-0.572-24.953-0.962l8.034-4.719l4.716-18.508l2.916-15.69l25.222-30.095l20.872-0.331l0.771-1.797l-22.012,0.144
		l-26.689,28.335l-1.666-12.484l5.803-24.063l-1.68-23.758l9.958-17.261l-3.079-0.118c0,0-9.255,14.01-9.289,15.017
		c-0.035,1.007-0.572,23.671-0.842,24.669c-0.272,0.998-7.919,30.446-7.919,30.446l5.509,13.796l-6.188,20.794l-35.912,19.157
		l6.561-28.536l4.262-40.845l-1.267-28.288l-3.427-0.119l-0.93,30.031l-3.17,28.918l-8.018-13.668l1.493-48.234l-2.998-0.105
		l-4.202,48.139l10.877,25.43l-12.318,39.506l-35.281,41.491l-0.575-65.676l16.831-45.744l17.056-33.729l7.941-18.624l11.536-0.39
		l13.213-11.842l23.631-18.245l0.223-2.008l17.375,0.67l10.156-5.658l5.412-19.578l18.02-6.741l18.902-4.816l-1.081-3.066
		l-18.411,4.332l-20.613,6.263l-6.48,16.133c0,0-13.006,1.067-22.096,1.762l2.367-21.427l20.328-25.682l38.257-15.917l9.413-11.735
		l-2.604-0.101l-9.779,8.496l-44.17,15.385c0,0-21.314,26.904-22.577,29.124s-3.858,15.731-4.384,17.223
		c-0.524,1.492-10.805,17.731-10.805,17.731s-9.37,4.61-18.352,8.982l7.1-32.01l11.402-43.928l10.896-16.466l1.51-2.567
		c4.359-1.604,9.236-3.398,9.73-3.582c0.912-0.338,11.241-10.64,11.241-10.64l10.026-4.843l0.607-5.657l4.254-15.974l7.291-3.229
		l-1.822-1.937l-8.507,3.551l-5.165,17.111l-26.543,17.649l1.391-9.477l-4.014-33.354l13.975-15.819l10.938-14.206l-3.645-2.906
		l-10.027,13.883l-15.797,18.079l2.734,32.931l-15.063,38.852l-13.156,35.6l1.582-53.34l1.967-13.363l-5.408-28.411l-5.271-15.361
		l6.184-18.539l4.496-15.174l-4.496-18.725l-1.216-9.363l-2.431,10.654l3.646,16.465l-9.472,25.1l-0.858-2.5l-14.584-36.482
		l10.938-23.245l-4.252,1.614l-10.635,20.662l11.85,42.293l12.216,37.128v1.871l-14.038-10.588l-10.027-20.339l-20.354-14.206
		l-8.203-16.788l-3.038,1.291l8.811,19.048l19.443,15.497L1138.576,557l15.861,7.685v26.238l-3.644,33.439l-20.422-23.454
		l2.128-23.891l-13.671-19.371l-20.053-13.56l2.431-19.048l-2.431,1.615l-4.558,19.264l18.532,14.413l9.803,13.64l-26.207,1.434
		l-20.052-19.694l-16.103-13.237l-4.203-20.663h-1.569l1.569,24.107l21.824,21.092l16.405,15.819l30.378,0.922l-1.82,18.126
		c0,0,18.705,27.95,26.155,39.582l-2.425,22.263l-3.6,6.102l-24.098,40.88l-4.873-9.296l2.087-44.409l-13.327-41.987l-1.655,3.775
		l10.917,40.662l-6.998,41.096c0,0,3.375,11.765,6.465,22.688l-10.602,17.984l-14.379-15.662l-2.258-31.09l-9.8-11.72l-8.161-4.095
		l-7.637-5.588c0,0-3.268-5.744-5.936-10.539l6.82-15.389l0.49-14.348l-9.239-21.151l-2.405-19.879l-9.572-25.322l-2.023,3.702
		l8.202,23.758l1.741,18.467l6.936,19.171l-6.285,18.361c-1.074-3.711-2.147-7.595-2.147-7.595l-11.1-15.3l-6.45-26.462
		l-10.371-15.776l-11.893-6.004l-3.407-18.279l-3.791-0.146c0,0,3.797,20.815,4.008,21.579c0.211,0.765,8.102,5.858,8.102,5.858
		s7.079,12.138,9.85,17.439l-25.548-4.621l-11.546-14.851l-14.278-1.937l-7.596,4.843v3.228l8.203-3.874h7.898l6.077,4.843
		l8.811,15.82l21.57,4.52l10.085,1.531c5.322,13.956,17.035,43.554,17.035,43.554l10.05,18.284l22.712,22.552
		c0,0,0.057,0.839,0.153,2.261l-50.876-10.266l-8.344-26.536l-21.39-5.74l-14.028-19.824l-2.43,1.671l14.836,24.014l16.663,5.18
		l10.032,32.65l25.555,8.799l19.838,2.53l10.934-0.602c0.65,9.92,1.395,21.611,1.355,22.753
		c-0.049,1.418,11.318,12.897,18.529,20.025l-9.634,71.947l-16.505-14.322l2.51-4.751l8.709-18.821l-8.66-24.279l-4.33-19.071
		l4.337-8.907l-2.571-1.107l-4.853,10.147l2.839,21.03l5.023,19.602l-9.211,12.932l-6.398-22.612l-30.525-31.519l-0.262-17.813
		l-1.402,0.468l-0.105,19.115l20.855,27.019L1032.642,771l-15.533-16.51l-18.298-4.787l-10.167,2.518l-0.135,1.206l9.671-1.972
		l15.486,5.5c0,0,14.92,18.131,15.027,18.441c0.08,0.235,13.628,4.081,20.427,6.001l0.188,0.242l6.24,27.937l-11.17,15.683
		l-7.979,18.345l8.206,30.563c0,0,2.303,29.831,1.049,31.799c-0.631,0.992-3.131,10.814-5.456,20.313
		c-11.128-24.356-26.031-56.381-26.031-56.381l-7.38-4.248l-7.774-34.625l-16.983-14.564l-5.9-21.617l-1.066,2.144l4.192,21.498
		l14.586,13.417c0,0,3.642,17.529,6.14,29.829l-29.056-16.713l-13.583-17.822l-24.143-15.382c0,0-29.73-9.212-31.576-10.711
		c-1.847-1.5-20.729-13.486-20.729-13.486l-7.708-15.082l-3.543,1.876l7.72,14.749l21.839,17.982l26.899,8.768l14.569,8.627
		l17.722,16.762l-31.997,5.424l-36.945-10.271l0.36,3.013l32.078,17.662l38.107-3.967l8.768,6.299l-13.682,10.751l-25.418,8.094
		l-17.451,10.921l-10.033,29.86l3.89,4.183l7.482-24.665l18.688-12.387l22.537-0.139l26.134-17.889l21.335,15.33l28.801,86.041
		l2.13,44.907l-49.918-34.584l-11.409-60.718l-9.445-13.348l-2.711-0.095l8.686,14.726l4.246,47.525l10.98,28.471l16.226,11.196
		c0,0,21.814,15.341,22.385,15.359c0.312,0.015,6.315,4.122,11.739,7.874l1.937,40.92l0.904,2.285
		c-14.321-3.588-33.833-8.441-33.833-8.441l-36.555-20.062l-33.851-43.65l-23.786-4.979l-26.52-8.304l-26.018,4.793l-0.146,4.28
		l24.333-4.103l23.353,10.731l22.603,4.904l29.688,47.523l7.952,5.276c-7.042,4.606-22.733,14.8-24.712,15.502
		c-2.562,0.909-17.791,2.339-18.75,2.638c-0.959,0.299-23.708-4.947-23.708-4.947l-15.633,2.421l-16.547,18.434l2.387,4.209
		l16.985-15.813l17.652,1.689c0,0,25.13,5.001,27.646,5.435c2.516,0.433,31.905-8.18,31.905-8.18l18.589-10.898l13.343,8.853
		l53.39,17.382l21.641,54.708l-14.855,90.566l-29.349-23.291l-2.684-8.83l9.159-27.991l-7.913-21.33l3.438-18.708l-1.144-0.041
		l-4.591,19.072l5.446,21.044c0,0-4.519,10.397-7.563,17.553l-11.44-37.61l-19.164-16.16l-26.813,1.986l-0.116,3.664l24.53,0.861
		l15.781,14.108l13.893,64.881l38.697,34.299l2.226,59.593l18.73,102.838l59.92-8.16l-24.168-116.28l24.357-32.872
		c14.323,3.539,46.527,11.475,47.509,11.512c1.264,0.049,66.687-17.257,66.687-17.257l42.552-23.564l74.216-6.212l10.05,2.067
		l0.139-4.027l-16.052-2.299l-78.581,4.363l-36.745,20.26l-39.84,9.05c0,0,4.971-15.94,5.941-16.575s23.387-27.328,23.387-27.328
		l25.571-17.163l-3.359-3.49l-23.526,12.872l-18.564,15.751l-13.04,20.67l-10.306,14.726l-31.327,0.472l-17.222-3.933l5.924-7.994
		l0.301-47.059l30.671-31.889l0.563-18.469c12.205-1.75,27.014-6.459,29.888-6.349c3.158,0.122,32.87,0.595,33.817,0.632
		c0.947,0.036,23.797-11.518,23.797-11.518l32.059-21.953l14.548-3.176l72.919,31.885l41.365-10.53l34.513-16.297l-1.624-5.479
		L1436.847,1127.212z M1056.005,1047.554c-3.705-6.837-3.6-91.921-3.891-94.33c-0.04-0.336-0.811-2.204-2.102-5.166l10.865-36.464
		l1.284-16.713l-8.698-23.146l-3.016-22.802l6.902-14.605l6.09-11.53c5.252,4.566,13.008,11.315,19.736,17.188l-2.018,15.035
		l-1.588,134.854l8.181,103.336C1087.752,1093.212,1059.708,1054.396,1056.005,1047.554z M1114.626,881.3l13.271,5.656l15.293,3.615
		l27.76-0.19l23.299-15.485l1.817-0.036l-0.471,3.121l-19.937,30.126c0,0,1.104,29.648,1.623,45.203l-9.6,4.779
		c0,0-26.938,34.622-45.802,59.542l-9.237-97.336l-0.316-36.071L1114.626,881.3z M1171.243,1172.418l-29.479,30.283l-4.871,46.624
		c0,0-17.381,20.609-30.755,36.588l-5.685-27.356l15.125-73.85c4.725-0.517,8.728-1.149,9.566-1.858
		c2.28-1.929,17.233-13.786,18.542-15.081c1.198-1.185,16.639-7.737,28.979-9.747L1171.243,1172.418z M1290.824,1109.924
		c0,0-39.427,24.693-41.354,25.627c-1.841,0.891-40.767,2.183-44.377,2.301l5.354-17.249l24.13-2.766l29.39-8.613l0.115-3.356
		c0,0-27.312,3.316-28.302,4.538c-0.991,1.222-31.186,5.603-31.186,5.603l-11.807,22.561c-3.904,0.229-8.353,0.489-12.714,0.742
		l0.681-22.252l8.039-20.346l-1.695-1.425l-10.396,21.87l-2.22,22.476c-8.201,0.472-14.953,0.85-15.315,0.836
		c-0.496-0.019-18.979,4.811-36.453,9.411l8.007-39.091l-4.97-52.403l23.755-40.385c12.955,1.604,34.013,4.204,41.219,5.043
		c11.112,16.404,34.095,50.332,34.476,50.889c0.461,0.676,64.266,30.028,74.604,34.781L1290.824,1109.924z"/>
	<linearGradient id="SVGID_4_" gradientUnits="userSpaceOnUse" x1="402.5283" y1="285.8101" x2="475.8119" y2="1563.0234">
		<stop  offset="0" style="stop-color:#843566"/>
		<stop  offset="1" style="stop-color:#2A0333"/>
	</linearGradient>
	<path fill="url(#SVGID_4_)" d="M486.035,1129.296l13.206-4.788l13.738-3.492l21.08,10.901l2.096-1.924l-20.344-10.391
		l20.351-20.737l-1.611-4.273l-5.751,10.876l-19.723,13.17l-21.071,3.922l19.467-66.51l30.614-30.298l-8.557-1.225l-29.522,26.474
		l-38.08,101.529l-10.091,14.315l-12.168-32.152l15.13-65.109l-8.27-31.201c0,0-19.542-15.986-22.04-17.253
		c-2.496-1.267-9.209-31.335-9.209-31.335l-3.686,2.087l10.49,29.814l21.896,21.781l6.305,24.097l-19.297,66.685
		c0,0,9.469,30.131,13.516,42.987l-27.406,38.876l4.15,73.752l-2.035,10.059l-33.504-20.912l-16.394-39.749l-4.885,5.175
		l16.345,41.86l34.853,31.356l-22.73,112.392l38.234,15.5l12.806-141.911l-3.018-38.427l40.573-16.712l18.312-42.859l16.113-25.009
		l-1.228-2.423l-22.65,21.318l-17.496,34.682l-35.224,10.616l-1.827-23.265l39.717-62.121L486.035,1129.296z"/>
	<linearGradient id="SVGID_5_" gradientUnits="userSpaceOnUse" x1="334.3906" y1="289.7207" x2="407.6743" y2="1566.9362">
		<stop  offset="0" style="stop-color:#843566"/>
		<stop  offset="1" style="stop-color:#2A0333"/>
	</linearGradient>
	<path fill="url(#SVGID_5_)" d="M507.835,967.725l-40.655,14.844l1.922-16.714l53.493-28.63l10.549,5.525l2.511-2.763l-12.557-6.279
		c0,0-58.267,28.63-58.769,29.384c-0.375,0.562-4.803,15.521-7.027,23.083l-25.567,9.335l-40.405-11.371l28.542-24.874
		l66.036-51.552l26.298-40.083l-5.128-2.64l-27.216,33.278l-55.713,31.107l12.433-86.867l14.185-39.91l-2.352-6.055l-22.967,45.325
		l-8.93,62.387l-9.448-6.209l-10.8-44.201l4.994-20.115l-1.729-1.735l-6.53,21.85l8.288,42.192l13.688,18.954l-3.838,26.822
		l-83.197,72.925l4.01-28.021l-4.688-35.629l23.274-53.543l-10.027-48.219l24.612-38.676l-1.005-2.763l-27.626,40.434l8.106,49.01
		c0,0-10.855,22.331-19.22,39.422l-8.125-61.753l30.171-94.813l-4.741-8.304L297.84,875.078c0,0,2.647,22.27,5.269,47.428
		l-36.234-46.764l6.711-65.208l-29.292-57.583l-3.554,1.872c0,0,26.721,52.993,27.031,55.618c0.312,2.625-8.97,66.043-8.97,66.043
		s28.582,37.509,45.736,60.092c2.672,27.072,4.763,53.379,3.101,55.906c-3.523,5.353-14.575,51.577-14.575,51.577l-89.733-91.003
		l-1.369,9.568l88.879,96.975l1.374,51.516l-4.944-2.334l-34.045-37.534l-1.477,1.58c0,0,32.533,41.275,32.965,41.45
		c0.164,0.066,3.543,1.647,7.682,3.588l2.354,88.143l-17.715,71.938c-3.984-5.163-6.947-9.167-6.975-9.688
		c-0.089-1.602,2.188-35.272,2.188-35.272l-20.895-42.706l-13.385-15.26l-4.529-28.291l-2.18-0.312l-0.318,26.644l-28.462-20.914
		l-0.713,4.982l41.048,32.881l20.003,44.485l-7.037,40.297c0,0,8.333,14.896,15.27,27.458l-35.668,144.849l60.422,11.348
		l23.617-165.015l17.463-85.829l-6.169-52.354l28.701-20.075l18.406,8.389c0,0,53.283,13.981,54.262,13.802
		c0.979-0.177,20.509-7.868,20.509-7.868l-3.202-4.271l-17.928,7.602l-43.811-11.354l-19.799-12.202l18.294-12.796l23.574-56.676
		l-3.75-3.396l-29.808,51.38l-49.587,20.5l4.833-77.786l28.339-38.837l16.283-14.191l56.491,8.085l78.826-31.293l44.257,8.24
		l0.667-4.67L507.835,967.725z"/>
	<linearGradient id="SVGID_6_" gradientUnits="userSpaceOnUse" x1="654.748" y1="271.3389" x2="728.0315" y2="1548.5514">
		<stop  offset="0" style="stop-color:#843566"/>
		<stop  offset="1" style="stop-color:#2A0333"/>
	</linearGradient>
	<path fill="url(#SVGID_6_)" d="M853.186,1072.865l-28.429,23.845l-10.542,2.695l5.058-19.467l32.62-20.094l-0.36-2.444
		l-37.165,18.89l-13.603,41.195l-26.601,18.869l-5.706-25.639l8.554-21.752l-4.058-30.402l7.324-9.608l-0.99-0.375l-8.082,10.137
		l0.592,29.458l-10.502,22.663c0,0,4.363,19.645,6.608,29.958l-6.229,4.421c0,0-14.924,26.562-25.293,45.613l-18.305-63.773
		l-4.578-24.031l23.256-40.906l0.434-7.115l27.753-22.624l1.108-12.957l0.174-10.846l14.252-23.319l14.764-2.899l0.329-1.299
		l-15.594,2.921l-16.65,23.982l-2.251,17.601l-23.155,17.393l1.207-19.886l-1.909-27.805l-4.314-18.715l-2.443,0.36l2.966,20.161
		l1.243,19.706l-7.335-8.093l-4.767-32.381l-2.138,0.315l2.831,32.665l10.785,15.576l-3.965,27.945l-20.012,32.216l-8.337-43.755
		l6.412-32.688l8.023-24.697l5.871-23.338l0.056-1.072l1.384-26.354l2.876-31.811l-4.172,2.735l-5.031,25.446l-5.318-35.8
		l-3.884,8.197l3.165,49.6l-1.814,4.533l-12.153,30.375l-4.579-5.579l-3.882-29.904l-14.521-26.31l-0.72,2.731l12.652,25.735v28.323
		c0,0,3.813,7.418,7.323,14.313l-8.232,20.573l1.986,52.735l-16.091-8.912l-10.611-20.826l-25.452-17.119l-2.337-11.854
		l-0.938,0.492l2.233,12.771l18.053,15.355l-8.715-1.229l-13.008-9.024l-13.556-0.847l-6.904,2.985l0.048,0.822l6.622-2.558
		l11.645,1.684c0,0,12.771,10.186,12.885,10.378c0.085,0.146,10.158,0.975,15.212,1.384l0.161,0.137l10.003,22.886
		c0,0,11.74,6.51,21.063,11.707l0.384,10.293l15.157,90.199l18.279,67.912c0,0-24.576-22.305-28.029-26.396
		c-3.451-4.087-13.65-60.882-14.148-62.453c-0.497-1.57-36.973-50.739-36.973-50.739l-5.746-1.889l-9.693-22.11l-13.804-7.54
		l-6.796-13.668l-0.496,1.567l5.569,13.809l11.963,7.082c0,0,4.698,11.23,7.956,19.118l-28.733-9.431l-25.263,8.856l-27.441-2.114
		l0.619,1.965l24.883,7.671l26.545-7.537l33.629,14.838l30.813,53.724l6.933,29.696l-39.577-16.675l-15.422-39.057l-8.31-7.696
		l-1.934,0.284l7.937,8.713l8.751,31.171l11.224,17.592l12.858,5.389c0,0,17.324,7.439,17.73,7.378
		c0.223-0.03,4.977,1.94,9.274,3.749l6.314,27.059l32.779,50.37l0.4,62.345l-23.625-11.777l-2.971-5.548l3.117-19.855l-8.188-13.219
		l0.181-12.926l-0.815,0.119l-0.954,13.317l6.404,13.345c0,0-1.949,7.519-3.244,12.685l-12.654-23.631l-15.542-8.326l-18.776,4.766
		l0.359,2.459l17.5-2.573l12.896,7.39l17.686,41.517l31.584,17.924l8.773,39.485l25.701,66.225l41.509-13.133l-31.179-74.5
		l20.63-38.86l-5.469-31.444l17.899-25.217l-5.801-39.316l3.244-14.61l-1.374-0.733l-4.733,15.929l2.802,37.578l-17.25,23.992
		l2.176,31.739c0,0-9.837,15.984-17.392,28.364l-7.336-17.527l3.623-102.496l-9.853-34.333l25.702-64.411l38.565-30.997
		l4.723-18.188l14.292-1.047l26.125-28.187L853.186,1072.865z"/>
</g>
<g>
	<path fill="#FFFFFF" d="M-349.463,612.356c-2.439,0-2.443,3.791,0,3.791C-347.024,616.147-347.02,612.356-349.463,612.356z"/>
	<path fill="#FFFFFF" d="M4.798,416.496c-2.438,0-2.442,3.791,0,3.791C7.236,420.287,7.241,416.496,4.798,416.496z"/>
	<path fill="#FFFFFF" d="M598.802,453.956c-2.438,0-2.443,3.791,0,3.791C601.24,457.746,601.244,453.956,598.802,453.956z"/>
	<path fill="#FFFFFF" d="M735.797,849.958c-2.438,0-2.443,3.791,0,3.791C738.235,853.749,738.24,849.958,735.797,849.958z"/>
	<path fill="#FFFFFF" d="M413.645,1214.922c-2.44,0-2.445,3.791,0,3.791C416.083,1218.712,416.086,1214.922,413.645,1214.922z"/>
	<path fill="#FFFFFF" d="M-61.559,1102.542c-2.439,0-2.443,3.791,0,3.791C-59.12,1106.333-59.115,1102.542-61.559,1102.542z"/>
	<path fill="#FFFFFF" d="M-194.809,1138.932c-2.438,0-2.443,3.791,0,3.791C-192.369,1142.723-192.365,1138.932-194.809,1138.932z"/>
	<path fill="#FFFFFF" d="M-329.664,869.222c-2.438,0-2.442,3.791,0,3.791C-327.225,873.013-327.221,869.222-329.664,869.222z"/>
	<path fill="#FFFFFF" d="M-597.768,705.47c-2.438,0-2.443,3.791,0,3.791C-595.328,709.261-595.324,705.47-597.768,705.47z"/>
	<path fill="#FFFFFF" d="M-109.722,252.743c-2.438,0-2.443,3.791,0,3.791C-107.281,256.534-107.279,252.743-109.722,252.743z"/>
	<path fill="#FFFFFF" d="M68.479,464.658c-2.438,0-2.443,3.791,0,3.791C70.918,468.449,70.923,464.658,68.479,464.658z"/>
	<path fill="#FFFFFF" d="M326.951,450.209c-2.438,0-2.443,3.791,0,3.791C329.391,454,329.395,450.209,326.951,450.209z"/>
	<path fill="#FFFFFF" d="M550.104,280.035c-2.44,0-2.444,3.791,0,3.791C552.543,283.826,552.546,280.035,550.104,280.035z"/>
	<path fill="#FFFFFF" d="M644.823,734.368c-2.438,0-2.442,3.791,0,3.791C647.262,738.159,647.267,734.368,644.823,734.368z"/>
	<path fill="#FFFFFF" d="M659.271,1270.576c-2.438,0-2.442,3.791,0,3.791C661.711,1274.367,661.715,1270.576,659.271,1270.576z"/>
	<path fill="#FFFFFF" d="M288.421,1111.64c-2.438,0-2.442,3.791,0,3.791C290.859,1115.431,290.864,1111.64,288.421,1111.64z"/>
	<path fill="#FFFFFF" d="M-88.852,1145.064c-4.877,0-4.885,7.581,0,7.581C-83.973,1152.646-83.965,1145.064-88.852,1145.064z"/>
	<path fill="#FFFFFF" d="M-414.75,510.925c-4.879,0-4.886,7.581,0,7.581C-409.872,518.506-409.863,510.925-414.75,510.925z"/>
	<path fill="#FFFFFF" d="M-87.245,470.79c-4.879,0-4.886,7.581,0,7.581C-82.367,478.371-82.359,470.79-87.245,470.79z"/>
	<path fill="#FFFFFF" d="M493.914,213.924c-4.877,0-4.887,7.581,0,7.581C498.793,221.505,498.801,213.924,493.914,213.924z"/>
	<path fill="#FFFFFF" d="M630.375,772.608c-4.877,0-4.887,7.581,0,7.581C635.252,780.189,635.262,772.608,630.375,772.608z"/>
	<path fill="#FFFFFF" d="M307.687,1141.854c-4.879,0-4.887,7.581,0,7.581C312.563,1149.435,312.572,1141.854,307.687,1141.854z"/>
	<path fill="#FFFFFF" d="M-392.274,777.424c-4.878,0-4.886,7.581,0,7.581C-387.396,785.005-387.389,777.424-392.274,777.424z"/>
	<path fill="#FFFFFF" d="M29.949,417.811c-4.877,0-4.887,7.581,0,7.581C34.828,425.392,34.836,417.811,29.949,417.811z"/>
	<path fill="#FFFFFF" d="M670.511,315.065c-4.879,0-4.887,7.581,0,7.581C675.388,322.646,675.396,315.065,670.511,315.065z"/>
	<path fill="#FFFFFF" d="M856.738,801.505c-4.877,0-4.887,7.581,0,7.581C861.617,809.086,861.625,801.505,856.738,801.505z"/>
	<path fill="#FFFFFF" d="M131.091,1191.621c-4.878,0-4.887,7.582,0,7.582C135.968,1199.202,135.977,1191.621,131.091,1191.621z"/>
	<path fill="#FFFFFF" d="M257.919,287.772c-4.879,0-4.886,7.582,0,7.582C262.796,295.354,262.805,287.772,257.919,287.772z"/>
	<path fill="#FFFFFF" d="M-104.905,1279.918c-4.878,0-4.886,7.582,0,7.582C-100.026,1287.5-100.02,1279.918-104.905,1279.918z"/>
	<path fill="#FFFFFF" d="M-618.638,730.867c-4.879,0-4.886,7.581,0,7.581C-613.76,738.448-613.751,730.867-618.638,730.867z"/>
	<path fill="#FFFFFF" d="M948.246,950.809c-4.877,0-4.885,7.581,0,7.581C953.125,958.39,953.133,950.809,948.246,950.809z"/>
	<path fill="#FFFFFF" d="M653.387,1118.842c-4.879,0-4.887,7.581,0,7.581C658.264,1126.423,658.272,1118.842,653.387,1118.842z"/>
	<path fill="#FFFFFF" d="M615.926,693.608c-0.488,0-0.488,0.758,0,0.758S616.415,693.608,615.926,693.608z"/>
	<path fill="#FFFFFF" d="M694.591,494.001c-0.487,0-0.488,0.758,0,0.758C695.08,494.76,695.08,494.001,694.591,494.001z"/>
	<path fill="#FFFFFF" d="M460.2,405.168c-0.487,0-0.489,0.758,0,0.758C460.688,405.927,460.688,405.168,460.2,405.168z"/>
	<path fill="#FFFFFF" d="M382.606,476.877c-0.489,0-0.489,0.758,0,0.758C383.094,477.635,383.095,476.877,382.606,476.877z"/>
	<path fill="#FFFFFF" d="M219.389,488.115c-0.487,0-0.489,0.758,0,0.758C219.875,488.873,219.877,488.115,219.389,488.115z"/>
	<path fill="#FFFFFF" d="M201.193,425.504c-0.486,0-0.488,0.758,0,0.758C201.681,426.262,201.683,425.504,201.193,425.504z"/>
	<path fill="#FFFFFF" d="M3.996,460.934c-0.035-0.037-0.076-0.063-0.122-0.079c-0.046-0.023-0.095-0.034-0.146-0.033
		c-0.098,0.005-0.2,0.037-0.269,0.111c-0.067,0.074-0.11,0.166-0.11,0.268v0.535c0,0.097,0.043,0.199,0.11,0.268
		c0.035,0.037,0.076,0.063,0.122,0.079c0.046,0.023,0.095,0.034,0.146,0.032c0.098-0.004,0.2-0.037,0.269-0.111
		c0.067-0.075,0.11-0.166,0.11-0.268v-0.535C4.106,461.105,4.063,461.003,3.996,460.934z"/>
	<path fill="#FFFFFF" d="M-104.369,350.584c-0.488,0-0.488,0.758,0,0.758C-103.882,351.343-103.882,350.584-104.369,350.584z"/>
	<path fill="#FFFFFF" d="M-234.409,428.18c-0.487,0-0.487,0.758,0,0.758C-233.921,428.938-233.921,428.18-234.409,428.18z"/>
	<path fill="#FFFFFF" d="M-321.637,533.602c-0.487,0-0.488,0.758,0,0.758S-321.148,533.602-321.637,533.602z"/>
	<path fill="#FFFFFF" d="M-305.047,640.629c-0.487,0-0.488,0.758,0,0.758S-304.559,640.629-305.047,640.629z"/>
	<path fill="#FFFFFF" d="M-438.832,658.824c-0.486,0-0.488,0.758,0,0.758C-438.343,659.582-438.343,658.824-438.832,658.824z"/>
	<path fill="#FFFFFF" d="M-285.781,774.949c-0.489,0-0.489,0.758,0,0.758C-285.295,775.708-285.293,774.949-285.781,774.949z"/>
	<path fill="#FFFFFF" d="M-347.322,835.42c-0.488,0-0.488,0.758,0,0.758C-346.835,836.178-346.834,835.42-347.322,835.42z"/>
	<path fill="#FFFFFF" d="M-571.012,851.474c-0.486,0-0.486,0.758,0,0.758C-570.522,852.232-570.522,851.474-571.012,851.474z"/>
	<path fill="#FFFFFF" d="M-326.988,987.934c-0.486,0-0.488,0.758,0,0.758C-326.499,988.692-326.499,987.934-326.988,987.934z"/>
	<path fill="#FFFFFF" d="M-308.257,1116.902c-0.489,0-0.489,0.758,0,0.758C-307.77,1117.661-307.769,1116.902-308.257,1116.902z"/>
	<path fill="#FFFFFF" d="M-140.759,1092.286c-0.488,0-0.488,0.758,0,0.758C-140.271,1093.044-140.271,1092.286-140.759,1092.286z"/>
	<path fill="#FFFFFF" d="M-93.667,1172.557c-0.488,0-0.488,0.758,0,0.758C-93.18,1173.315-93.178,1172.557-93.667,1172.557z"/>
	<path fill="#FFFFFF" d="M-256.885,1283.866c-0.487,0-0.488,0.758,0,0.758S-256.396,1283.866-256.885,1283.866z"/>
	<path fill="#FFFFFF" d="M58.312,1121.719c-0.487,0-0.488,0.758,0,0.758C58.801,1122.477,58.801,1121.719,58.312,1121.719z"/>
	<path fill="#FFFFFF" d="M79.182,1199.849c-0.486,0-0.488,0.758,0,0.758C79.671,1200.607,79.671,1199.849,79.182,1199.849z"/>
	<path fill="#FFFFFF" d="M208.686,1149.011c-0.488,0-0.488,0.758,0,0.758C209.173,1149.769,209.175,1149.011,208.686,1149.011z"/>
	<path fill="#FFFFFF" d="M323.74,1329.352c-0.487,0-0.489,0.758,0,0.758C324.229,1330.11,324.229,1329.352,323.74,1329.352z"/>
	<path fill="#FFFFFF" d="M538.33,1122.789c-0.487,0-0.488,0.758,0,0.758S538.818,1122.789,538.33,1122.789z"/>
	<path fill="#FFFFFF" d="M566.693,1130.281c-0.488,0-0.489,0.758,0,0.758C567.182,1131.039,567.182,1130.281,566.693,1130.281z"/>
	<path fill="#FFFFFF" d="M569.904,1208.946c-0.488,0-0.488,0.758,0,0.758C570.392,1209.705,570.393,1208.946,569.904,1208.946z"/>
	<path fill="#FFFFFF" d="M795.197,1328.817c-0.488,0-0.488,0.758,0,0.758C795.685,1329.575,795.687,1328.817,795.197,1328.817z"/>
	<path fill="#FFFFFF" d="M748.641,1008.805c-0.488,0-0.488,0.758,0,0.758C749.128,1009.563,749.129,1008.805,748.641,1008.805z"/>
	<path fill="#FFFFFF" d="M945.57,1007.734c-0.486,0-0.488,0.758,0,0.758S946.059,1007.734,945.57,1007.734z"/>
	<path fill="#FFFFFF" d="M1123.773,1097.103c-0.489,0-0.49,0.758,0,0.758C1124.26,1097.861,1124.262,1097.103,1123.773,1097.103z"/>
	<path fill="#FFFFFF" d="M830.517,885.188c-0.487,0-0.488,0.758,0,0.758C831.004,885.946,831.006,885.188,830.517,885.188z"/>
	<path fill="#FFFFFF" d="M972.328,826.322c-0.487,0-0.488,0.758,0,0.758C972.815,827.081,972.816,826.322,972.328,826.322z"/>
	<path fill="#FFFFFF" d="M1037.08,696.284c-0.488,0-0.488,0.758,0,0.758C1037.567,697.042,1037.568,696.284,1037.08,696.284z"/>
	<path fill="#FFFFFF" d="M1042.432,442.628c-0.489,0-0.489,0.758,0,0.758C1042.918,443.386,1042.92,442.628,1042.432,442.628z"/>
	<path fill="#FFFFFF" d="M1207.789,591.397c-0.487,0-0.489,0.758,0,0.758C1208.277,592.155,1208.277,591.397,1207.789,591.397z"/>
	<path fill="#FFFFFF" d="M-280.965,247.303c-0.489,0-0.489,0.758,0,0.758C-280.479,248.061-280.477,247.303-280.965,247.303z"/>
	<path fill="#FFFFFF" d="M-95.808,153.654c-0.487,0-0.489,0.758,0,0.758C-95.319,154.412-95.319,153.654-95.808,153.654z"/>
	<path fill="#FFFFFF" d="M135.371,216.8c-0.487,0-0.488,0.758,0,0.758S135.859,216.8,135.371,216.8z"/>
	<path fill="#FFFFFF" d="M90.42,368.244c-0.488,0-0.488,0.758,0,0.758C90.907,369.002,90.909,368.244,90.42,368.244z"/>
	<path fill="#FFFFFF" d="M255.243,305.098c-0.488,0-0.488,0.758,0,0.758C255.73,305.856,255.732,305.098,255.243,305.098z"/>
	<path fill="#FFFFFF" d="M470.904,195.395c-0.488,0-0.488,0.758,0,0.758C471.391,196.152,471.393,195.395,470.904,195.395z"/>
	<path fill="#FFFFFF" d="M426.486,344.252c-2.438,0-2.443,3.791,0,3.791C428.927,348.042,428.93,344.252,426.486,344.252z"/>
	<path fill="#FFFFFF" d="M664.089,885.277c-2.438,0-2.443,3.791,0,3.791C666.527,889.067,666.532,885.277,664.089,885.277z"/>
	<path fill="#FFFFFF" d="M-478.967,856.379c-2.439,0-2.443,3.791,0,3.791C-476.527,860.17-476.524,856.379-478.967,856.379z"/>
	<path fill="#FFFFFF" d="M-621.85,479.107c-2.438,0-2.442,3.791,0,3.791C-619.409,482.897-619.406,479.107-621.85,479.107z"/>
	<path fill="#FFFFFF" d="M10.684,339.436c-2.438,0-2.443,3.791,0,3.791C13.124,343.226,13.127,339.436,10.684,339.436z"/>
	<path fill="#FFFFFF" d="M-329.664,996.051c-2.438,0-2.442,3.791,0,3.791C-327.225,999.841-327.221,996.051-329.664,996.051z"/>
	<path fill="#FFFFFF" d="M188.887,480.712c-2.44,0-2.443,3.791,0,3.791C191.325,484.503,191.329,480.712,188.887,480.712z"/>
	<path fill="#FFFFFF" d="M638.402,426.128c-2.439,0-2.443,3.791,0,3.791C640.84,429.919,640.845,426.128,638.402,426.128z"/>
	<path fill="#FFFFFF" d="M630.375,652.492c-2.438,0-2.443,3.791,0,3.791C632.813,656.282,632.818,652.492,630.375,652.492z"/>
	<path fill="#FFFFFF" d="M-263.841,1201.543c-2.438,0-2.443,3.791,0,3.791C-261.402,1205.334-261.397,1201.543-263.841,1201.543z"/>
	<path fill="#FFFFFF" d="M-265.446,1220.808c-2.44,0-2.442,3.791,0,3.791C-263.008,1224.599-263.003,1220.808-265.446,1220.808z"/>
</g>
</svg>
